<svg xmlns="http://www.w3.org/2000/svg" viewBox="0 0 296 50" width="296" height="50" shape-rendering="crispEdges">
  <rect width="296" height="50" fill="#1a1a1a"/>

  <!-- 5x5 grid per letter, 6px per cell, 4px gap between letters -->
  <!-- Letter width: 30px, total: 8*30 + 7*4 = 268, padding: 14px each side -->

  <!-- t (x=14) -->
  <g fill="#909090">
    <rect x="14" y="10" width="6" height="6"/>
    <rect x="20" y="10" width="6" height="6"/>
    <rect x="26" y="10" width="6" height="6"/>
    <rect x="32" y="10" width="6" height="6"/>
    <rect x="38" y="10" width="6" height="6"/>
    <rect x="26" y="16" width="6" height="6"/>
    <rect x="26" y="22" width="6" height="6"/>
    <rect x="26" y="28" width="6" height="6"/>
    <rect x="26" y="34" width="6" height="6"/>
  </g>

  <!-- o (x=48) -->
  <g fill="#909090">
    <rect x="54" y="10" width="6" height="6"/>
    <rect x="60" y="10" width="6" height="6"/>
    <rect x="66" y="10" width="6" height="6"/>
    <rect x="48" y="16" width="6" height="6"/>
    <rect x="72" y="16" width="6" height="6"/>
    <rect x="48" y="22" width="6" height="6"/>
    <rect x="72" y="22" width="6" height="6"/>
    <rect x="48" y="28" width="6" height="6"/>
    <rect x="72" y="28" width="6" height="6"/>
    <rect x="54" y="34" width="6" height="6"/>
    <rect x="60" y="34" width="6" height="6"/>
    <rect x="66" y="34" width="6" height="6"/>
  </g>

  <!-- k (x=82) -->
  <g fill="#909090">
    <rect x="82" y="10" width="6" height="6"/>
    <rect x="106" y="10" width="6" height="6"/>
    <rect x="82" y="16" width="6" height="6"/>
    <rect x="100" y="16" width="6" height="6"/>
    <rect x="82" y="22" width="6" height="6"/>
    <rect x="88" y="22" width="6" height="6"/>
    <rect x="94" y="22" width="6" height="6"/>
    <rect x="82" y="28" width="6" height="6"/>
    <rect x="100" y="28" width="6" height="6"/>
    <rect x="82" y="34" width="6" height="6"/>
    <rect x="106" y="34" width="6" height="6"/>
  </g>

  <!-- t (x=116) -->
  <g fill="#909090">
    <rect x="116" y="10" width="6" height="6"/>
    <rect x="122" y="10" width="6" height="6"/>
    <rect x="128" y="10" width="6" height="6"/>
    <rect x="134" y="10" width="6" height="6"/>
    <rect x="140" y="10" width="6" height="6"/>
    <rect x="128" y="16" width="6" height="6"/>
    <rect x="128" y="22" width="6" height="6"/>
    <rect x="128" y="28" width="6" height="6"/>
    <rect x="128" y="34" width="6" height="6"/>
  </g>

  <!-- r (x=150) -->
  <g fill="#909090">
    <rect x="150" y="10" width="6" height="6"/>
    <rect x="156" y="10" width="6" height="6"/>
    <rect x="162" y="10" width="6" height="6"/>
    <rect x="168" y="10" width="6" height="6"/>
    <rect x="150" y="16" width="6" height="6"/>
    <rect x="174" y="16" width="6" height="6"/>
    <rect x="150" y="22" width="6" height="6"/>
    <rect x="156" y="22" width="6" height="6"/>
    <rect x="162" y="22" width="6" height="6"/>
    <rect x="168" y="22" width="6" height="6"/>
    <rect x="150" y="28" width="6" height="6"/>
    <rect x="168" y="28" width="6" height="6"/>
    <rect x="150" y="34" width="6" height="6"/>
    <rect x="174" y="34" width="6" height="6"/>
  </g>

  <!-- a (x=184) -->
  <g fill="#909090">
    <rect x="190" y="10" width="6" height="6"/>
    <rect x="196" y="10" width="6" height="6"/>
    <rect x="202" y="10" width="6" height="6"/>
    <rect x="184" y="16" width="6" height="6"/>
    <rect x="208" y="16" width="6" height="6"/>
    <rect x="184" y="22" width="6" height="6"/>
    <rect x="190" y="22" width="6" height="6"/>
    <rect x="196" y="22" width="6" height="6"/>
    <rect x="202" y="22" width="6" height="6"/>
    <rect x="208" y="22" width="6" height="6"/>
    <rect x="184" y="28" width="6" height="6"/>
    <rect x="208" y="28" width="6" height="6"/>
    <rect x="184" y="34" width="6" height="6"/>
    <rect x="208" y="34" width="6" height="6"/>
  </g>

  <!-- c (x=218) -->
  <g fill="#909090">
    <rect x="224" y="10" width="6" height="6"/>
    <rect x="230" y="10" width="6" height="6"/>
    <rect x="236" y="10" width="6" height="6"/>
    <rect x="242" y="10" width="6" height="6"/>
    <rect x="218" y="16" width="6" height="6"/>
    <rect x="218" y="22" width="6" height="6"/>
    <rect x="218" y="28" width="6" height="6"/>
    <rect x="224" y="34" width="6" height="6"/>
    <rect x="230" y="34" width="6" height="6"/>
    <rect x="236" y="34" width="6" height="6"/>
    <rect x="242" y="34" width="6" height="6"/>
  </g>

  <!-- k (x=252) -->
  <g fill="#909090">
    <rect x="252" y="10" width="6" height="6"/>
    <rect x="276" y="10" width="6" height="6"/>
    <rect x="252" y="16" width="6" height="6"/>
    <rect x="270" y="16" width="6" height="6"/>
    <rect x="252" y="22" width="6" height="6"/>
    <rect x="258" y="22" width="6" height="6"/>
    <rect x="264" y="22" width="6" height="6"/>
    <rect x="252" y="28" width="6" height="6"/>
    <rect x="270" y="28" width="6" height="6"/>
    <rect x="252" y="34" width="6" height="6"/>
    <rect x="276" y="34" width="6" height="6"/>
  </g>
</svg>
